Coordinates
nRows=17
nColumns=24

# SIMM Motion File Header:
name Coordinates
datacolumns 24
datarows 17
otherdata 1
range 0.44000000000000006000 0.45600000000000007000
endheader
time	pelvis_tx	pelvis_ty	pelvis_tz	pelvis_tilt	pelvis_list	pelvis_rotation	hip_flexion_r	hip_adduction_r	hip_rotation_r	knee_angle_r	ankle_angle_r	subtalar_angle_r	mtp_angle_r	hip_flexion_l	hip_adduction_l	hip_rotation_l	knee_angle_l	ankle_angle_l	subtalar_angle_l	mtp_angle_l	lumbar_extension	lumbar_bending	lumbar_rotation
      0.44000000000000006000	     -1.22052864010743110000	      0.97492582099635161000	     -0.19624295273796818000	     14.37232634443315500000	     -1.12276812224291980000	     -8.74211356953802370000	    -39.61682363223825800000	     -5.59351994295543700000	      5.40604603121037640000	    -12.90804127952322100000	     -7.78250408698709160000	     -0.00000000000000006369	      0.00000000000000007136	      9.95975580096237860000	     -3.95463526111450530000	     -3.75564831218186690000	     -3.49356710055029040000	     -2.70643248298220260000	     -0.00000000000000070878	      0.00000000000000116747	    -24.57490499717370000000	     -2.86007394199130040000	     11.78041690260913100000
      0.44100000000000006000	     -1.21849965325744440000	      0.97458135120021183000	     -0.19643725221406355000	     14.38801900364940800000	     -1.03521552234517440000	     -8.73473452863940910000	    -39.55149459202231600000	     -5.68070036810416660000	      5.32459731556529730000	    -13.20927293939282900000	     -8.04927893300783560000	     -0.00000000000000007856	      0.00000000000000008467	     10.05092721132390200000	     -3.83307876670444210000	     -3.78292641404579210000	     -3.82954472800995220000	     -2.83378917390561820000	     -0.00000000000000070127	      0.00000000000000119019	    -24.56216388578422600000	     -2.96222320893330070000	     11.75037802911673700000
      0.44200000000000006000	     -1.21647332921681860000	      0.97423263757722445000	     -0.19663217252658063000	     14.40233772548768900000	     -0.95057677529649520000	     -8.72635259322924740000	    -39.48310576852772900000	     -5.76436508830888260000	      5.24409276025288750000	    -13.51138560386872600000	     -8.31844078741714020000	     -0.00000000000000012301	      0.00000000000000009025	     10.14181291609032900000	     -3.71525911560353350000	     -3.80554630005645040000	     -4.16182680863686640000	     -2.96855889970169870000	     -0.00000000000000069844	      0.00000000000000123756	    -24.54860051710748400000	     -3.06074851794623280000	     11.72066031607177700000
      0.44300000000000006000	     -1.21444956149459780000	      0.97387985786541276000	     -0.19682768266645342000	     14.41534090309360600000	     -0.86872956297317949000	     -8.71701276699101870000	    -39.41178224741997100000	     -5.84466319161741140000	      5.16449555490290630000	    -13.81434714197178000000	     -8.58987029901481060000	     -0.00000000000000019595	      0.00000000000000008829	     10.23242091776787700000	     -3.60102047488265290000	     -3.82370347734749630000	     -4.49056276897663230000	     -3.11045400037309830000	     -0.00000000000000070036	      0.00000000000000130888	    -24.53425033114349700000	     -3.15580328562251780000	     11.69125263334907500000
      0.44400000000000006000	     -1.21242584953105360000	      0.97352702782822131000	     -0.19702317757033863000	     14.42833820279465200000	     -0.78691552241851404000	     -8.70767724832656680000	    -39.34041092200583000000	     -5.92493108544052750000	      5.08491997531245940000	    -14.11734067216930000000	     -8.86126963750108660000	     -0.00000000000000026905	      0.00000000000000008629	     10.32299299588173000000	     -3.48682796389703320000	     -3.84180408606096970000	     -4.81922190241421690000	     -3.25243557168999020000	     -0.00000000000000070180	      0.00000000000000137987	    -24.51990164341886200000	     -3.25082380910238290000	     11.66186088859776500000
      0.44500000000000006000	     -1.21040864937967240000	      0.97316832050984670000	     -0.19721689312981028000	     14.44064904767166400000	     -0.70897546776878717000	     -8.69884479238021590000	    -39.26345674054803700000	     -6.00167094547315380000	      5.00786997367672450000	    -14.42407041927896200000	     -9.12914519015990320000	     -0.00000000000000036102	      0.00000000000000008055	     10.40936971797251900000	     -3.37802274311244410000	     -3.85329829779598400000	     -5.13890875766829680000	     -3.40451567182998940000	     -0.00000000000000064593	      0.00000000000000141220	    -24.50572792852161900000	     -3.34184510252441710000	     11.63433046987868700000
      0.44600000000000006000	     -1.20839144922829120000	      0.97280961319147208000	     -0.19741060868928192000	     14.45295989254867500000	     -0.63103541311906042000	     -8.69001233643386510000	    -39.18650255909024300000	     -6.07841080550577930000	      4.93081997204098870000	    -14.73080016638862400000	     -9.39702074281871800000	     -0.00000000000000045298	      0.00000000000000007481	     10.49574644006330500000	     -3.26921752232785500000	     -3.86479250953099830000	     -5.45859561292237670000	     -3.55659577196998860000	     -0.00000000000000059006	      0.00000000000000144453	    -24.49155421362437600000	     -3.43286639594645140000	     11.60680005115961000000
      0.44700000000000006000	     -1.20637736419227370000	      0.97245051571071017000	     -0.19760240940705473000	     14.46654723578250800000	     -0.55343224540286418000	     -8.68261660055181570000	    -39.10813285926518300000	     -6.15580176236028630000	      4.85473685192165410000	    -15.03978736044545000000	     -9.66097815936477210000	     -0.00000000000000051660	      0.00000000000000008065	     10.57821026201032000000	     -3.16109380960716240000	     -3.87490382668067830000	     -5.77466763839014960000	     -3.70334589753181160000	     -0.00000000000000059802	      0.00000000000000146550	    -24.47886909183161900000	     -3.52418280841830360000	     11.58045022693175100000
      0.44800000000000006000	     -1.20436629024861270000	      0.97209104109624822000	     -0.19779235922541280000	     14.48136845128002500000	     -0.47615471495917921000	     -8.67660960835952010000	    -39.02839490945940800000	     -6.23382207396891100000	      4.77958832625673140000	    -15.35095661855269500000	     -9.92114827806666530000	     -0.00000000000000055281	      0.00000000000000009768	     10.65689184723751000000	     -3.05362884736039190000	     -3.88367842822604680000	     -6.08724554403597210000	     -3.84494403228769470000	     -0.00000000000000066768	      0.00000000000000147548	    -24.46762285457304400000	     -3.61578448503335580000	     11.55524157361851300000
      0.44900000000000007000	     -1.20235525883523090000	      0.97173158003623383000	     -0.19798228515837060000	     14.49621886329040500000	     -0.39886919362133660000	     -8.67062552720119050000	    -38.94864814069647700000	     -6.31186656159106360000	      4.70444789144633370000	    -15.66215663305200700000	    -10.18127850955637500000	     -0.00000000000000058861	      0.00000000000000011501	     10.73551255087612900000	     -2.94615597611035220000	     -3.89244275758230530000	     -6.39979473801238190000	     -3.98635798342460700000	     -0.00000000000000073747	      0.00000000000000148591	    -24.45640734465447300000	     -3.70740539175109830000	     11.53004512840604300000
      0.45000000000000007000	     -1.20034919434727930000	      0.97137370194090134000	     -0.19816942161980378000	     14.51447900845365200000	     -0.32065045067391051000	     -8.66731712558176600000	    -38.86787144446501700000	     -6.39273446018740450000	      4.63025235217985910000	    -15.97694855217942800000	    -10.43675048783687100000	     -0.00000000000000057543	      0.00000000000000016648	     10.80702315982919800000	     -2.83775944692969380000	     -3.90000744286044920000	     -6.70899082158406300000	     -4.10626193455849100000	     -0.00000000000000082258	      0.00000000000000154867	    -24.44878034650075400000	     -3.80127209812923270000	     11.50627441393429100000
      0.45100000000000007000	     -1.19834438217496310000	      0.97101626971996235000	     -0.19835644504722205000	     14.53358818856011700000	     -0.24180282069246856000	     -8.66445441995861290000	    -38.78678311533698100000	     -6.47454236600431980000	      4.55593596759957720000	    -16.29274141135382300000	    -10.69211961338241500000	     -0.00000000000000055849	      0.00000000000000022088	     10.87696677031633100000	     -2.72861061057377400000	     -3.90741172942259900000	     -7.01765734739061920000	     -4.22113386098217090000	     -0.00000000000000091039	      0.00000000000000163901	    -24.44201382013801200000	     -3.89598676880302900000	     11.48246204726572200000
      0.45200000000000007000	     -1.19634332694955380000	      0.97066017512220371000	     -0.19854312937259552000	     14.55524447349622900000	     -0.16106852960898052000	     -8.66292880232426830000	    -38.70475988751920200000	     -6.55917029348295340000	      4.48125704707787250000	    -16.61153709066914900000	    -10.94718018072311100000	     -0.00000000000000053026	      0.00000000000000028407	     10.94220938540566500000	     -2.61720485269207170000	     -3.91433481983676620000	     -7.32473519990180580000	     -4.32090971327524540000	     -0.00000000000000100626	      0.00000000000000181209	    -24.43782870914818500000	     -3.99324533236380750000	     11.45852472400670200000
      0.45300000000000007000	     -1.19434227172414450000	      0.97030408052444506000	     -0.19872981369796902000	     14.57690075843234100000	     -0.08033423852549245700	     -8.66140318468992550000	    -38.62273665970142400000	     -6.64379822096158710000	      4.40657812655616880000	    -16.93033276998447800000	    -11.20224074806380600000	     -0.00000000000000050203	      0.00000000000000034726	     11.00745200049499700000	     -2.50579909481036940000	     -3.92125791025093350000	     -7.63181305241299230000	     -4.42068556556832080000	     -0.00000000000000110213	      0.00000000000000198518	    -24.43364359815835800000	     -4.09050389592458700000	     11.43458740074768300000
      0.45400000000000007000	     -1.19234607725069370000	      0.96994966887156353000	     -0.19891863722907721000	     14.60132965557513500000	      0.00370381560569506360	     -8.66028402230644190000	    -38.53898597060545200000	     -6.73206666035925940000	      4.32980823131267110000	    -17.25366955588209800000	    -11.46144204744388300000	     -0.00000000000000047899	      0.00000000000000040353	     11.06793822932069900000	     -2.39026867953534030000	     -3.92768612338576920000	     -7.93690033585697740000	     -4.51388777809625810000	     -0.00000000000000114703	      0.00000000000000223812	    -24.43228748486224300000	     -4.19127152206526790000	     11.40889553500609900000
      0.45500000000000007000	     -1.19035150302789550000	      0.96959581820030771000	     -0.19910817382876364000	     14.62668275678682100000	      0.08884312408611330600	     -8.65930034500657970000	    -38.45465946108342300000	     -6.82154860372994150000	      4.25234134449524510000	    -17.57852004397381800000	    -11.72202359083708400000	     -0.00000000000000045769	      0.00000000000000045750	     11.12683899605852900000	     -2.27336337846253840000	     -3.93394937742749470000	     -8.24132409627856430000	     -4.60489877736915430000	     -0.00000000000000117494	      0.00000000000000251768	    -24.43187437079736700000	     -4.29320883573258080000	     11.38261882177032900000
      0.45600000000000007000	     -1.18835869758493180000	      0.96924221223446738000	     -0.19929923518315437000	     14.65263432894896500000	      0.17520728846889433000	     -8.65799186627411470000	    -38.36935682279826000000	     -6.91206003309077670000	      4.17380100350259920000	    -17.90515964193509600000	    -11.98547460028005500000	     -0.00000000000000045069	      0.00000000000000051439	     11.18484231546082000000	     -2.15489880635294990000	     -3.93980142620700710000	     -8.54541366827942280000	     -4.69703454866766190000	     -0.00000000000000119795	      0.00000000000000282363	    -24.43211055071551000000	     -4.39619625092545620000	     11.35528692358941100000
